<svg width="204" height="36" viewBox="0 0 204 36" fill="none" xmlns="http://www.w3.org/2000/svg">
    <path d="M29.7011 28.5412C32.3874 25.5585 33.8335 21.6628 33.7441 17.6498C33.6547 13.6368 32.0365 9.80931 29.2202 6.94922L24.0938 11.9973C25.6237 13.5509 26.5027 15.6301 26.5512 17.81C26.5998 19.9899 25.8142 22.1062 24.355 23.7264L29.7011 28.5412Z"
          fill="#49BEFF"/>
    <path d="M29.1962 6.92259C26.8575 4.55894 23.8308 2.99605 20.5496 2.45777C17.2684 1.91949 13.901 2.43344 10.9297 3.926L14.1592 10.3551C15.7733 9.54431 17.6025 9.26512 19.3849 9.55753C21.1673 9.84993 22.8115 10.6989 24.0819 11.9829L29.1962 6.92259Z"
          fill="#13DEB9"/>
    <path d="M12.0179 3.42969C9.83204 4.32725 7.87611 5.70514 6.29506 7.46127C4.714 9.21741 3.54834 11.3068 2.88444 13.5746C2.22054 15.8424 2.0754 18.2305 2.4598 20.5621C2.84419 22.8936 3.74825 25.1087 5.10501 27.0434C6.46176 28.9781 8.23644 30.5827 10.2976 31.7383C12.3587 32.894 14.6534 33.5711 17.0117 33.7195C19.3701 33.8678 21.7316 33.4837 23.9213 32.5954C26.111 31.7072 28.0727 30.3376 29.6613 28.5883L24.3349 23.7517C23.472 24.7019 22.4063 25.4459 21.2168 25.9284C20.0273 26.4109 18.7445 26.6196 17.4635 26.539C16.1824 26.4584 14.9358 26.0906 13.8162 25.4628C12.6966 24.8351 11.7325 23.9634 10.9955 22.9125C10.2585 21.8615 9.76742 20.6582 9.55862 19.3917C9.34981 18.1252 9.42865 16.8279 9.78929 15.596C10.1499 14.3641 10.7831 13.2291 11.642 12.2751C12.5008 11.3212 13.5633 10.5727 14.7508 10.0851L12.0179 3.42969Z"
          fill="#5D87FF"/>

    <text x="42" y="26" fill="white" style="font-family: Arial, sans-serif; font-size: 21px;">
        <tspan>Boss</tspan>
        <tspan>admin</tspan>
    </text>
</svg>